<svg   viewBox="0 0 24 24" fill="currentColor" xmlns="http://www.w3.org/2000/svg">
<path fill-rule="evenodd" clip-rule="evenodd" d="M2 2.5C2 1.94772 2.44772 1.5 3 1.5H21C21.5523 1.5 22 1.94772 22 2.5V6.5C22 7.05228 21.5523 7.5 21 7.5H3C2.44772 7.5 2 7.05228 2 6.5V2.5ZM4 3.5V5.5H20V3.5H4ZM2 10C2 9.44772 2.44772 9 3 9H21C21.5523 9 22 9.44772 22 10V14C22 14.5523 21.5523 15 21 15H3C2.44772 15 2 14.5523 2 14V10ZM4 11V13H20V11H4ZM3 16.5C2.44772 16.5 2 16.9477 2 17.5V21.5C2 22.0523 2.44772 22.5 3 22.5H21C21.5523 22.5 22 22.0523 22 21.5V17.5C22 16.9477 21.5523 16.5 21 16.5H3ZM4 20.5V18.5H20V20.5H4Z" fill="currentColor"/>
</svg>
